<?xml version="1.0" encoding="UTF-8"?>
<!DOCTYPE svg PUBLIC "-//W3C//DTD SVG 1.1//EN" "http://www.w3.org/Graphics/SVG/1.1/DTD/svg11.dtd">
<svg xmlns="http://www.w3.org/2000/svg" version="1.1" width="512px" height="512px" style="shape-rendering:geometricPrecision; text-rendering:geometricPrecision; image-rendering:optimizeQuality; fill-rule:evenodd; clip-rule:evenodd" xmlns:xlink="http://www.w3.org/1999/xlink">
<g><path style="opacity:0.989" fill="#fefefe" d="M 336.5,24.5 C 328.217,35.9563 319.717,47.2896 311,58.5C 310.333,59.1667 310.333,59.8333 311,60.5C 331.056,65.2809 349.556,73.4475 366.5,85C 370.037,88.3691 373.371,91.8691 376.5,95.5C 373.751,96.3512 370.917,97.0179 368,97.5C 366.624,97.6842 365.791,98.3509 365.5,99.5C 301.375,99.8456 238.042,107.346 175.5,122C 167.106,124.348 158.773,126.848 150.5,129.5C 137.326,120.743 123.659,112.743 109.5,105.5C 154.328,71.4174 203.995,46.2508 258.5,30C 280.928,24.2787 303.595,22.7787 326.5,25.5C 329.783,24.673 333.116,24.3396 336.5,24.5 Z"/></g>
<g><path style="opacity:1" fill="#b9280d" d="M 376.5,95.5 C 373.371,91.8691 370.037,88.3691 366.5,85C 349.556,73.4475 331.056,65.2809 311,60.5C 310.333,59.8333 310.333,59.1667 311,58.5C 319.717,47.2896 328.217,35.9563 336.5,24.5C 342.744,23.5422 349.077,23.2088 355.5,23.5C 353.255,30.051 351.755,36.7176 351,43.5C 357.858,40.6012 364.691,37.6012 371.5,34.5C 388.053,40.111 404.387,46.2777 420.5,53C 433.216,56.3134 445.883,56.1467 458.5,52.5C 458.833,52.8333 459.167,53.1667 459.5,53.5C 445.885,68.316 429.551,79.1494 410.5,86C 399.351,89.8838 388.018,93.0505 376.5,95.5 Z"/></g>
<g><path style="opacity:1" fill="#f9ede4" d="M 365.5,99.5 C 366.791,99.2627 367.791,99.596 368.5,100.5C 357.657,106.422 346.657,112.089 335.5,117.5C 277.871,117.044 220.871,123.378 164.5,136.5C 163.287,136.747 162.62,137.414 162.5,138.5C 158.462,135.488 154.462,132.488 150.5,129.5C 158.773,126.848 167.106,124.348 175.5,122C 238.042,107.346 301.375,99.8456 365.5,99.5 Z"/></g>
<g><path style="opacity:1" fill="#b9270c" d="M 368.5,100.5 C 394.947,110.72 419.28,124.554 441.5,142C 455.126,149.74 469.793,153.74 485.5,154C 465.053,167.982 442.386,175.482 417.5,176.5C 407.418,176.807 397.418,176.474 387.5,175.5C 368.312,157.966 349.145,140.3 330,122.5C 330.885,120.126 332.718,118.459 335.5,117.5C 346.657,112.089 357.657,106.422 368.5,100.5 Z"/></g>
<g><path style="opacity:0.997" fill="#b82407" d="M 109.5,105.5 C 123.659,112.743 137.326,120.743 150.5,129.5C 154.462,132.488 158.462,135.488 162.5,138.5C 170.345,143.923 178.011,149.589 185.5,155.5C 191.475,160.47 197.475,165.47 203.5,170.5C 219.063,185.012 232.729,201.012 244.5,218.5C 246.93,223.037 249.597,227.37 252.5,231.5C 253.84,235.51 255.174,239.51 256.5,243.5C 247.539,239.501 238.206,238.501 228.5,240.5C 217.314,225.481 203.98,212.648 188.5,202C 149.762,176.635 107.762,158.635 62.5,148C 61.944,147.617 61.6107,147.117 61.5,146.5C 77.5,132.833 93.5,119.167 109.5,105.5 Z"/></g>
<g><path style="opacity:1" fill="#fefefe" d="M 335.5,117.5 C 332.718,118.459 330.885,120.126 330,122.5C 349.145,140.3 368.312,157.966 387.5,175.5C 369.671,176.113 352.004,173.947 334.5,169C 302.941,164.144 271.274,160.144 239.5,157C 221.51,156.075 203.51,155.575 185.5,155.5C 178.011,149.589 170.345,143.923 162.5,138.5C 162.62,137.414 163.287,136.747 164.5,136.5C 220.871,123.378 277.871,117.044 335.5,117.5 Z"/></g>
<g><path style="opacity:0.997" fill="#f68815" d="M 61.5,146.5 C 61.6107,147.117 61.944,147.617 62.5,148C 107.762,158.635 149.762,176.635 188.5,202C 203.98,212.648 217.314,225.481 228.5,240.5C 217.072,244.258 208.739,251.591 203.5,262.5C 190.991,254.58 177.658,248.247 163.5,243.5C 122.928,230.023 81.5949,219.357 39.5,211.5C 36.6786,211.461 34.0119,210.795 31.5,209.5C 37.7781,187.614 46.7781,166.947 58.5,147.5C 59.325,146.614 60.325,146.281 61.5,146.5 Z"/></g>
<g><path style="opacity:1" fill="#f9eee4" d="M 185.5,155.5 C 203.51,155.575 221.51,156.075 239.5,157C 271.274,160.144 302.941,164.144 334.5,169C 352.004,173.947 369.671,176.113 387.5,175.5C 397.418,176.474 407.418,176.807 417.5,176.5C 425.007,179.25 432.34,182.583 439.5,186.5C 439.082,187.222 438.416,187.722 437.5,188C 417.602,191.04 397.602,192.04 377.5,191C 346.23,185.684 314.896,180.684 283.5,176C 256.934,172.643 230.268,170.81 203.5,170.5C 197.475,165.47 191.475,160.47 185.5,155.5 Z"/></g>
<g><path style="opacity:1" fill="#fffdfb" d="M 72.5,164.5 C 74.9892,164.298 77.3225,164.798 79.5,166C 82.388,169.222 84.888,172.722 87,176.5C 90.4741,174.26 94.1408,172.594 98,171.5C 105.498,172.497 107.831,176.497 105,183.5C 101.778,186.388 98.2784,188.888 94.5,191C 96.7396,194.474 98.4063,198.141 99.5,202C 98.8935,208.808 95.2268,211.474 88.5,210C 85.2809,206.448 82.4476,202.615 80,198.5C 75.42,202.217 70.2534,203.717 64.5,203C 61.6339,201.607 60.3006,199.274 60.5,196C 60.5419,194.033 61.0419,192.199 62,190.5C 65.7514,188.709 69.2514,186.543 72.5,184C 68.7832,179.42 67.2832,174.253 68,168.5C 69.3968,166.93 70.8968,165.596 72.5,164.5 Z"/></g>
<g><path style="opacity:0.999" fill="#fefefe" d="M 203.5,170.5 C 230.268,170.81 256.934,172.643 283.5,176C 314.896,180.684 346.23,185.684 377.5,191C 397.602,192.04 417.602,191.04 437.5,188C 438.416,187.722 439.082,187.222 439.5,186.5C 442.047,187.934 444.381,189.6 446.5,191.5C 424.649,192.704 403.316,196.538 382.5,203C 390.323,215.498 399.656,226.831 410.5,237C 413.166,239.335 416.166,241.169 419.5,242.5C 422.084,241.607 424.751,241.274 427.5,241.5C 422.712,242.953 417.712,243.953 412.5,244.5C 377.428,246.76 342.761,243.926 308.5,236C 286.885,231.071 265.552,225.238 244.5,218.5C 232.729,201.012 219.063,185.012 203.5,170.5 Z"/></g>
<g><path style="opacity:1" fill="#fffcfa" d="M 134.5,185.5 C 137.187,185.336 139.854,185.503 142.5,186C 145.336,188.993 147.336,192.493 148.5,196.5C 149.167,196.833 149.833,197.167 150.5,197.5C 153.566,196.2 156.733,195.2 160,194.5C 167.039,195.922 169.372,199.922 167,206.5C 164.038,209.399 160.538,211.399 156.5,212.5C 156.167,213.167 155.833,213.833 155.5,214.5C 156.903,217.709 157.903,221.042 158.5,224.5C 156.909,231.963 152.575,234.129 145.5,231C 143.326,227.116 141.159,223.283 139,219.5C 134.459,222.088 129.626,222.921 124.5,222C 120.965,219.293 119.798,215.793 121,211.5C 124.847,208.119 129.014,205.286 133.5,203C 130.995,198.79 130.161,194.29 131,189.5C 132.376,188.295 133.542,186.962 134.5,185.5 Z"/></g>
<g><path style="opacity:1" fill="#b9280d" d="M 446.5,191.5 C 462.983,201.976 477.317,214.976 489.5,230.5C 480.521,231.798 471.521,232.965 462.5,234C 450.774,236.349 439.108,238.849 427.5,241.5C 424.751,241.274 422.084,241.607 419.5,242.5C 416.166,241.169 413.166,239.335 410.5,237C 399.656,226.831 390.323,215.498 382.5,203C 403.316,196.538 424.649,192.704 446.5,191.5 Z"/></g>
<g><path style="opacity:0.998" fill="#f8ba8a" d="M 39.5,211.5 C 81.5949,219.357 122.928,230.023 163.5,243.5C 169.851,296.383 176.851,349.05 184.5,401.5C 184.145,404.067 183.479,406.567 182.5,409C 182.57,409.765 182.903,410.265 183.5,410.5C 178.073,424.839 173.239,439.505 169,454.5C 165.024,464.1 160.857,473.6 156.5,483C 157.908,483.315 159.241,482.982 160.5,482C 168.861,477.155 177.194,472.322 185.5,467.5C 181.91,474.348 178.577,481.348 175.5,488.5C 154.167,488.5 132.833,488.5 111.5,488.5C 116.296,472.112 121.296,455.779 126.5,439.5C 133.187,427.295 139.52,414.795 145.5,402C 135.561,402.766 125.895,404.599 116.5,407.5C 101.998,410.75 87.4976,414.084 73,417.5C 64.0297,416.864 58.363,412.198 56,403.5C 54.6997,396.229 54.1997,388.896 54.5,381.5C 64.684,378.573 73.0174,372.907 79.5,364.5C 73.0897,362.363 66.7564,360.03 60.5,357.5C 57.8029,358.232 55.1362,359.066 52.5,360C 51.6634,361.011 51.33,362.178 51.5,363.5C 49.8368,361.507 48.6701,359.174 48,356.5C 47.6667,349.833 47.3333,343.167 47,336.5C 39.2598,333.531 31.4264,330.864 23.5,328.5C 31.5822,306.09 39.5822,283.59 47.5,261C 44.6633,253.156 41.83,245.322 39,237.5C 37.612,228.938 37.7787,220.272 39.5,211.5 Z"/></g>
<g><path style="opacity:1" fill="#fffcf9" d="M 180.5,218.5 C 187.846,218.999 194.013,221.999 199,227.5C 200.82,235.669 197.653,239.502 189.5,239C 184.9,236.785 180.734,233.952 177,230.5C 175.699,228.635 175.365,226.635 176,224.5C 177.332,222.34 178.832,220.34 180.5,218.5 Z"/></g>
<g><path style="opacity:1" fill="#f9eee4" d="M 244.5,218.5 C 265.552,225.238 286.885,231.071 308.5,236C 342.761,243.926 377.428,246.76 412.5,244.5C 416.961,246.564 421.294,248.898 425.5,251.5C 400.301,256.14 374.968,256.64 349.5,253C 316.746,247.683 284.413,240.516 252.5,231.5C 249.597,227.37 246.93,223.037 244.5,218.5 Z"/></g>
<g><path style="opacity:0.998" fill="#fefefe" d="M 252.5,231.5 C 284.413,240.516 316.746,247.683 349.5,253C 374.968,256.64 400.301,256.14 425.5,251.5C 434.017,256.017 441.683,261.683 448.5,268.5C 426.619,267.26 404.953,268.927 383.5,273.5C 389.899,290.637 399.565,305.637 412.5,318.5C 393.348,317.644 374.681,314.144 356.5,308C 330.072,298.118 304.405,286.618 279.5,273.5C 276.631,259.736 268.964,249.736 256.5,243.5C 255.174,239.51 253.84,235.51 252.5,231.5 Z"/></g>
<g><path style="opacity:1" fill="#31449d" d="M 256.5,243.5 C 268.964,249.736 276.631,259.736 279.5,273.5C 279.5,276.5 279.5,279.5 279.5,282.5C 279.087,284.89 278.421,287.223 277.5,289.5C 272.269,286.198 266.602,283.865 260.5,282.5C 254.437,279.284 248.104,278.284 241.5,279.5C 234.274,291.06 226.274,302.06 217.5,312.5C 209.083,307.026 203.583,299.359 201,289.5C 198.401,280.108 199.234,271.108 203.5,262.5C 208.739,251.591 217.072,244.258 228.5,240.5C 238.206,238.501 247.539,239.501 256.5,243.5 Z"/></g>
<g><path style="opacity:1" fill="#503824" d="M 163.5,243.5 C 177.658,248.247 190.991,254.58 203.5,262.5C 199.234,271.108 198.401,280.108 201,289.5C 203.583,299.359 209.083,307.026 217.5,312.5C 209.051,325.828 202.718,340.161 198.5,355.5C 204.044,354.406 209.544,353.073 215,351.5C 215.5,351.833 216,352.167 216.5,352.5C 209.293,363.896 200.46,373.896 190,382.5C 188.428,389.034 186.595,395.368 184.5,401.5C 176.851,349.05 169.851,296.383 163.5,243.5 Z"/></g>
<g><path style="opacity:1" fill="#060403" d="M 78.5,244.5 C 86.5996,244.113 94.5996,244.78 102.5,246.5C 106.683,244.769 111.017,244.269 115.5,245C 120.743,249.588 120.743,254.255 115.5,259C 112.618,260.608 109.618,261.941 106.5,263C 100.793,262.646 95.1268,261.979 89.5,261C 92.5635,267.094 91.8969,272.761 87.5,278C 82.5056,281.666 78.0056,281.166 74,276.5C 72.1015,272.379 71.2681,268.046 71.5,263.5C 65.0719,262.669 62.5719,259.002 64,252.5C 68.1189,248.361 72.9522,245.694 78.5,244.5 Z"/></g>
<g><path style="opacity:1" fill="#b5240c" d="M 236.5,247.5 C 241.152,246.984 244.652,248.651 247,252.5C 247.839,257.921 247.506,263.254 246,268.5C 242.498,271.601 238.665,272.101 234.5,270C 233.107,268.829 232.273,267.329 232,265.5C 231.333,261.167 231.333,256.833 232,252.5C 233.025,250.313 234.525,248.646 236.5,247.5 Z"/></g>
<g><path style="opacity:0.855" fill="#e7aba0" d="M 448.5,268.5 C 450.587,269.585 451.92,271.251 452.5,273.5C 450.413,272.415 449.08,270.749 448.5,268.5 Z"/></g>
<g><path style="opacity:1" fill="#b5240c" d="M 212.5,271.5 C 217.93,271.161 223.264,271.661 228.5,273C 231.848,276.419 232.348,280.252 230,284.5C 228.829,285.893 227.329,286.727 225.5,287C 220.382,287.888 215.382,287.555 210.5,286C 206.062,280.373 206.729,275.54 212.5,271.5 Z"/></g>
<g><path style="opacity:1" fill="#f9eee5" d="M 279.5,273.5 C 304.405,286.618 330.072,298.118 356.5,308C 374.681,314.144 393.348,317.644 412.5,318.5C 416.5,318.5 420.5,318.5 424.5,318.5C 427.642,320.58 430.642,322.914 433.5,325.5C 432.391,326.29 431.058,326.79 429.5,327C 408.405,328.446 387.738,326.113 367.5,320C 337.103,309.968 307.77,297.468 279.5,282.5C 279.5,279.5 279.5,276.5 279.5,273.5 Z"/></g>
<g><path style="opacity:1" fill="#b9280c" d="M 448.5,268.5 C 449.08,270.749 450.413,272.415 452.5,273.5C 453.5,273.833 454.167,274.5 454.5,275.5C 455.419,278.089 457.086,280.089 459.5,281.5C 469.038,292.219 477.372,303.886 484.5,316.5C 464.501,316.086 444.501,316.753 424.5,318.5C 420.5,318.5 416.5,318.5 412.5,318.5C 399.565,305.637 389.899,290.637 383.5,273.5C 404.953,268.927 426.619,267.26 448.5,268.5 Z"/></g>
<g><path style="opacity:0.996" fill="#df9280" d="M 454.5,275.5 C 456.914,276.911 458.581,278.911 459.5,281.5C 457.086,280.089 455.419,278.089 454.5,275.5 Z"/></g>
<g><path style="opacity:1" fill="#f7ece3" d="M 241.5,279.5 C 248.104,278.284 254.437,279.284 260.5,282.5C 269.228,298.698 273.228,316.031 272.5,334.5C 272.543,344.612 271.543,354.612 269.5,364.5C 267.701,360.942 266.368,357.108 265.5,353C 265.164,351.97 264.497,351.47 263.5,351.5C 267.992,329.788 264.492,309.454 253,290.5C 249.956,285.955 246.123,282.289 241.5,279.5 Z"/></g>
<g><path style="opacity:1" fill="#fdfdfd" d="M 241.5,279.5 C 246.123,282.289 249.956,285.955 253,290.5C 264.492,309.454 267.992,329.788 263.5,351.5C 260.055,380.694 249.722,407.028 232.5,430.5C 231.152,416.754 227.986,403.421 223,390.5C 222.586,390.043 222.086,389.709 221.5,389.5C 208.806,396.512 196.14,403.512 183.5,410.5C 182.903,410.265 182.57,409.765 182.5,409C 183.479,406.567 184.145,404.067 184.5,401.5C 186.595,395.368 188.428,389.034 190,382.5C 200.46,373.896 209.293,363.896 216.5,352.5C 216,352.167 215.5,351.833 215,351.5C 209.544,353.073 204.044,354.406 198.5,355.5C 202.718,340.161 209.051,325.828 217.5,312.5C 226.274,302.06 234.274,291.06 241.5,279.5 Z"/></g>
<g><path style="opacity:0.997" fill="#fefefd" d="M 260.5,282.5 C 266.602,283.865 272.269,286.198 277.5,289.5C 278.421,287.223 279.087,284.89 279.5,282.5C 307.77,297.468 337.103,309.968 367.5,320C 387.738,326.113 408.405,328.446 429.5,327C 431.058,326.79 432.391,326.29 433.5,325.5C 442.044,332.035 448.711,340.035 453.5,349.5C 435.136,344.328 416.469,340.661 397.5,338.5C 399.816,355.454 405.483,371.121 414.5,385.5C 411.997,384.916 409.497,384.249 407,383.5C 406.235,383.57 405.735,383.903 405.5,384.5C 373.199,370.849 343.532,352.849 316.5,330.5C 319.542,337.602 323.042,344.935 327,352.5C 332.864,365.426 336.698,378.926 338.5,393C 338.486,394.385 338.152,395.551 337.5,396.5C 330.75,386.594 321.584,379.927 310,376.5C 302.11,387.622 296.944,399.956 294.5,413.5C 293.833,416.833 293.167,420.167 292.5,423.5C 283.078,404.576 275.411,384.91 269.5,364.5C 271.543,354.612 272.543,344.612 272.5,334.5C 273.228,316.031 269.228,298.698 260.5,282.5 Z"/></g>
<g><path style="opacity:1" fill="#2b2a29" d="M 92.5,295.5 C 104.838,295.333 117.171,295.5 129.5,296C 135.462,298.405 136.962,302.571 134,308.5C 132.829,309.893 131.329,310.727 129.5,311C 117.167,311.667 104.833,311.667 92.5,311C 87.4648,307.987 86.2981,303.82 89,298.5C 90.1451,297.364 91.3117,296.364 92.5,295.5 Z"/></g>
<g><path style="opacity:1" fill="#2b2a29" d="M 92.5,319.5 C 104.838,319.333 117.171,319.5 129.5,320C 135.462,322.405 136.962,326.571 134,332.5C 132.829,333.893 131.329,334.727 129.5,335C 117.167,335.667 104.833,335.667 92.5,335C 87.4648,331.987 86.2981,327.82 89,322.5C 90.1451,321.364 91.3117,320.364 92.5,319.5 Z"/></g>
<g><path style="opacity:1" fill="#f9ede3" d="M 405.5,384.5 C 407.692,387.55 409.358,390.883 410.5,394.5C 403.018,391.054 395.351,388.387 387.5,386.5C 388.552,386.649 389.552,386.483 390.5,386C 374.17,378.013 358.503,369.347 343.5,360C 348.294,370.671 351.46,381.838 353,393.5C 353.667,399.167 353.667,404.833 353,410.5C 353.053,413.675 352.22,416.342 350.5,418.5C 346.869,415.371 343.369,412.037 340,408.5C 339.768,409.737 339.268,410.737 338.5,411.5C 338.779,406.405 338.445,401.405 337.5,396.5C 338.152,395.551 338.486,394.385 338.5,393C 336.698,378.926 332.864,365.426 327,352.5C 323.042,344.935 319.542,337.602 316.5,330.5C 343.532,352.849 373.199,370.849 405.5,384.5 Z"/></g>
<g><path style="opacity:1" fill="#ba290e" d="M 453.5,349.5 C 455.924,352.008 457.59,355.008 458.5,358.5C 458.427,360.027 459.094,361.027 460.5,361.5C 466.16,372.29 471.16,383.456 475.5,395C 455.407,390.676 435.074,387.51 414.5,385.5C 405.483,371.121 399.816,355.454 397.5,338.5C 416.469,340.661 435.136,344.328 453.5,349.5 Z"/></g>
<g><path style="opacity:0.996" fill="#503824" d="M 263.5,351.5 C 264.497,351.47 265.164,351.97 265.5,353C 266.368,357.108 267.701,360.942 269.5,364.5C 275.411,384.91 283.078,404.576 292.5,423.5C 292.932,424.71 293.599,425.71 294.5,426.5C 301.544,438.252 307.211,450.585 311.5,463.5C 311.5,464.167 311.833,464.5 312.5,464.5C 312.5,465.167 312.5,465.833 312.5,466.5C 312.5,467.167 312.833,467.5 313.5,467.5C 313.833,468.833 314.167,470.167 314.5,471.5C 314.5,472.167 314.833,472.5 315.5,472.5C 315.5,473.167 315.5,473.833 315.5,474.5C 315.5,475.167 315.833,475.5 316.5,475.5C 316.5,476.167 316.5,476.833 316.5,477.5C 316.5,478.167 316.833,478.5 317.5,478.5C 317.5,478.833 317.5,479.167 317.5,479.5C 317.328,480.492 317.662,481.158 318.5,481.5C 318.5,481.833 318.5,482.167 318.5,482.5C 318.5,483.167 318.5,483.833 318.5,484.5C 313.26,475.408 307.76,466.408 302,457.5C 282.724,436.019 258.891,428.019 230.5,433.5C 231.167,432.5 231.833,431.5 232.5,430.5C 249.722,407.028 260.055,380.694 263.5,351.5 Z"/></g>
<g><path style="opacity:1" fill="#f99a62" d="M 54.5,381.5 C 54.6658,376.821 54.4992,372.155 54,367.5C 53.3378,366.016 52.5045,364.683 51.5,363.5C 51.33,362.178 51.6634,361.011 52.5,360C 55.1362,359.066 57.8029,358.232 60.5,357.5C 66.7564,360.03 73.0897,362.363 79.5,364.5C 73.0174,372.907 64.684,378.573 54.5,381.5 Z"/></g>
<g><path style="opacity:0.988" fill="#fefbfa" d="M 387.5,386.5 C 380.457,385.78 373.457,384.78 366.5,383.5C 364.846,399.115 364.179,414.782 364.5,430.5C 359.421,426.963 354.754,422.963 350.5,418.5C 352.22,416.342 353.053,413.675 353,410.5C 353.667,404.833 353.667,399.167 353,393.5C 351.46,381.838 348.294,370.671 343.5,360C 358.503,369.347 374.17,378.013 390.5,386C 389.552,386.483 388.552,386.649 387.5,386.5 Z"/></g>
<g><path style="opacity:0.443" fill="#e5a89b" d="M 458.5,358.5 C 459.906,358.973 460.573,359.973 460.5,361.5C 459.094,361.027 458.427,360.027 458.5,358.5 Z"/></g>
<g><path style="opacity:1" fill="#b9280c" d="M 337.5,396.5 C 338.445,401.405 338.779,406.405 338.5,411.5C 336.443,437.728 330.609,463.061 321,487.5C 320.722,486.584 320.222,485.918 319.5,485.5C 319.5,485.167 319.5,484.833 319.5,484.5C 319.672,483.508 319.338,482.842 318.5,482.5C 318.5,482.167 318.5,481.833 318.5,481.5C 318.672,480.508 318.338,479.842 317.5,479.5C 317.5,479.167 317.5,478.833 317.5,478.5C 316.833,478.5 316.5,478.167 316.5,477.5C 316.5,476.833 316.5,476.167 316.5,475.5C 315.833,475.5 315.5,475.167 315.5,474.5C 315.5,473.833 315.5,473.167 315.5,472.5C 314.833,472.5 314.5,472.167 314.5,471.5C 314.167,470.167 313.833,468.833 313.5,467.5C 312.833,467.5 312.5,467.167 312.5,466.5C 312.5,465.833 312.5,465.167 312.5,464.5C 311.833,464.5 311.5,464.167 311.5,463.5C 307.211,450.585 301.544,438.252 294.5,426.5C 294.5,422.167 294.5,417.833 294.5,413.5C 296.944,399.956 302.11,387.622 310,376.5C 321.584,379.927 330.75,386.594 337.5,396.5 Z"/></g>
<g><path style="opacity:1" fill="#b9270b" d="M 387.5,386.5 C 395.351,388.387 403.018,391.054 410.5,394.5C 417.11,407.949 420.444,422.283 420.5,437.5C 420.666,445.84 420.5,454.173 420,462.5C 419.329,461.748 418.496,461.414 417.5,461.5C 400.025,450.926 382.358,440.593 364.5,430.5C 364.179,414.782 364.846,399.115 366.5,383.5C 373.457,384.78 380.457,385.78 387.5,386.5 Z"/></g>
<g><path style="opacity:1" fill="#b82509" d="M 232.5,430.5 C 231.833,431.5 231.167,432.5 230.5,433.5C 216.717,446.546 201.717,457.879 185.5,467.5C 177.194,472.322 168.861,477.155 160.5,482C 159.241,482.982 157.908,483.315 156.5,483C 160.857,473.6 165.024,464.1 169,454.5C 173.239,439.505 178.073,424.839 183.5,410.5C 196.14,403.512 208.806,396.512 221.5,389.5C 222.086,389.709 222.586,390.043 223,390.5C 227.986,403.421 231.152,416.754 232.5,430.5 Z"/></g>
<g><path style="opacity:1" fill="#f9ae75" d="M 126.5,439.5 C 122.964,428.894 119.631,418.227 116.5,407.5C 125.895,404.599 135.561,402.766 145.5,402C 139.52,414.795 133.187,427.295 126.5,439.5 Z"/></g>
<g><path style="opacity:1" fill="#d17f6e" d="M 294.5,413.5 C 294.5,417.833 294.5,422.167 294.5,426.5C 293.599,425.71 292.932,424.71 292.5,423.5C 293.167,420.167 293.833,416.833 294.5,413.5 Z"/></g>
<g><path style="opacity:1" fill="#85500d" d="M 318.5,484.5 C 318.833,484.5 319.167,484.5 319.5,484.5C 319.5,484.833 319.5,485.167 319.5,485.5C 319.5,486.5 319.5,487.5 319.5,488.5C 271.5,488.5 223.5,488.5 175.5,488.5C 178.577,481.348 181.91,474.348 185.5,467.5C 201.717,457.879 216.717,446.546 230.5,433.5C 258.891,428.019 282.724,436.019 302,457.5C 307.76,466.408 313.26,475.408 318.5,484.5 Z"/></g>
<g><path style="opacity:0.957" fill="#c8543d" d="M 420.5,437.5 C 421.822,446.342 421.822,455.342 420.5,464.5C 419.145,463.812 418.145,462.812 417.5,461.5C 418.496,461.414 419.329,461.748 420,462.5C 420.5,454.173 420.666,445.84 420.5,437.5 Z"/></g>
</svg>
